HIERARCHY
ROOT ui
{
	 OFFSET 0 0 0
	 CHANNELS 3 XPosition YPosition Z Position
	 EndSite
	 {
	 OFFSET 0 -1 0
	 }
}
ROOT li
{
	 OFFSET 0 0 0
	 CHANNELS 3 XPosition YPosition Z Position
	 EndSite
	 {
	 OFFSET 0 -1 0
	 }
}
ROOT ul
{
	 OFFSET 0 0 0
	 CHANNELS 3 XPosition YPosition Z Position
	 EndSite
	 {
	 OFFSET 0 -1 0
	 }
}
ROOT ll
{
	 OFFSET 0 0 0
	 CHANNELS 3 XPosition YPosition Z Position
	 EndSite
	 {
	 OFFSET 0 -1 0
	 }
}
ROOT tt
{
	 OFFSET 0 0 0
	 CHANNELS 3 XPosition YPosition Z Position
	 EndSite
	 {
	 OFFSET 0 -1 0
	 }
}
ROOT tb
{
	 OFFSET 0 0 0
	 CHANNELS 3 XPosition YPosition Z Position
	 EndSite
	 {
	 OFFSET 0 -1 0
	 }
}
ROOT td
{
	 OFFSET 0 0 0
	 CHANNELS 3 XPosition YPosition Z Position
	 EndSite
	 {
	 OFFSET 0 -1 0
	 }
}
ROOT v
{
	 OFFSET 0 0 0
	 CHANNELS 3 XPosition YPosition Z Position
	 EndSite
	 {
	 OFFSET 0 -1 0
	 }
}
ROOT bn
{
	 OFFSET 0 0 0
	 CHANNELS 3 XPosition YPosition Z Position
	 EndSite
	 {
	 OFFSET 0 -1 0
	 }
}
MOTION
Frames: 21
Frame Time: 0.002
-0.006841772079467774	-0.00421035623550415	0		0.550388671875	-2.621764892578125	0		-1.042410400390625	0.302185791015625	0		-0.5218076782226563	-3.098911376953125	0		2.31928515625	-0.48477084350585936	0		3.71185888671875	-0.11938917541503906	0		5.11317626953125	0.09384603881835937	0		5.92005419921875	0.45850381469726564	0		-0.3019628295898438	5.92181982421875	0		
0.012209792137145997	0.0044956569671630855	0		0.5554014282226563	-2.61485302734375	0		-0.9553353881835938	0.3118867797851563	0		-0.42004498291015624	-3.10943310546875	0		2.3263955078125	-0.4718966979980469	0		3.708164794921875	-0.09335890197753906	0		5.11054248046875	0.12385532379150391	0		5.9307900390625	0.473625732421875	0		-0.16872158813476562	5.940833984375	0		
1.2447699904441834E-4	0.0026541969776153564	0		0.5522684936523438	-2.619828125	0		-0.974493896484375	0.3051505126953125	0		-0.49309640502929686	-3.108369140625	0		2.285372314453125	-0.4693100891113281	0		3.677185302734375	-0.08792215728759765	0		5.09841259765625	0.11901007843017578	0		5.917369140625	0.5017479553222656	0		-0.3030558166503906	5.92280517578125	0		
0.005019237995147705	-0.002449863910675049	0		0.5741395263671875	-2.6271826171875	0		-0.9845093383789062	0.30626544189453125	0		-0.3334764709472656	-3.1337724609375	0		2.28565478515625	-0.4483360290527344	0		3.65827587890625	-0.07966059875488281	0		5.07863623046875	0.13628971862792968	0		5.92152001953125	0.4842740173339844	0		-0.18495375061035157	5.93202197265625	0		
-0.007010450839996338	-0.00431502914428711	0		0.5502330932617188	-2.62186669921875	0		-0.9794541015625	0.31014068603515627	0		-0.455427978515625	-3.131009033203125	0		2.26767333984375	-0.4470968017578125	0		3.65827490234375	-0.07967871856689453	0		5.0678720703125	0.15244277954101562	0		5.92339404296875	0.44094808959960935	0		-0.3183077087402344	5.9119521484375	0		
-0.006980088233947754	-0.00437336015701294	0		0.5762442016601562	-2.625303955078125	0		-0.9794270629882813	0.3100719299316406	0		-0.410546875	-3.143737548828125	0		2.272019287109375	-0.42619235229492186	0		3.640826904296875	-0.04443489456176758	0		5.05712451171875	0.16760015869140624	0		5.92708740234375	0.45812799072265625	0		-0.30317935180664063	5.9226669921875	0		
0.00815755558013916	3.2964101433753966E-4	0		0.5554976196289062	-2.61506005859375	0		-0.971248779296875	0.31786419677734373	0		-0.4423587646484375	-3.1383447265625	0		2.25747705078125	-0.4000146179199219	0		3.630982666015625	-0.038309234619140625	0		5.03844091796875	0.1848782958984375	0		5.9289296875	0.5186409912109375	0		-0.30319961547851565	5.92258837890625	0		
2.917839884757996E-4	0.0023570759296417236	0		0.6065255126953125	-2.62389404296875	0		-0.9792682495117188	0.30987478637695315	0		-0.31549227905273436	-3.1593193359375	0		2.264720458984375	-0.3911684875488281	0		3.63430859375	-0.023379432678222657	0		5.03366015625	0.19295297241210937	0		5.9324638671875	0.5012477722167968	0		-0.3183654479980469	5.91171484375	0		
4.3756100535392764E-4	0.0022494370937347413	0		0.5459884643554688	-2.606089111328125	0		-0.9909953002929688	0.3189210815429688	0		-0.3173040771484375	-3.161404296875	0		2.2543193359375	-0.36106564331054686	0		3.60666455078125	-0.008992779731750488	0		5.0050556640625	0.21038580322265624	0		5.92543603515625	0.501552001953125	0		-0.186028564453125	5.93264892578125	0		
-0.0015482159852981568	-0.009844794273376464	0		0.60699365234375	-2.62409619140625	0		-0.9908131103515625	0.3187689208984375	0		-0.318055908203125	-3.163523193359375	0		2.249859619140625	-0.33805767822265625	0		3.591181640625	0.013214434623718262	0		4.99547802734375	0.2265435791015625	0		5.92189990234375	0.48444854736328125	0		-0.17085450744628905	5.94229638671875	0		
8.672279715538025E-4	0.001981768012046814	0		0.5325156860351562	-2.6101181640625	0		-0.978718017578125	0.3094190673828125	0		-0.41249972534179685	-3.148280517578125	0		2.220259521484375	-0.3276883850097656	0		3.572407470703125	0.012466048240661621	0		4.99210693359375	0.2536164855957031	0		5.92574072265625	0.5017030944824219	0		-0.3021296081542969	5.9210771484375	0		
0.009126686096191406	-2.953419983386993E-4	0		0.60599365234375	-2.60433056640625	0		-0.981189697265625	0.3262662353515625	0		-0.44096221923828127	-3.139031005859375	0		2.182225341796875	-0.28220172119140624	0		3.596251708984375	0.05009239959716797	0		4.977755859375	0.2788524475097656	0		5.9409130859375	0.4995337219238281	0		-0.28790658569335936	5.93069970703125	0		
0.006425861835479736	-0.003427304983139038	0		0.5534865112304688	-2.600708740234375	0		-0.9899756469726563	0.318184326171875	0		-0.31277529907226564	-3.15909521484375	0		2.197899169921875	-0.26051577758789063	0		3.55084619140625	0.06772591400146484	0		4.95955810546875	0.3111427001953125	0		5.94115673828125	0.4996292724609375	0		-0.3029229431152344	5.921732421875	0		
0.0018960729837417603	0.001453379988670349	0		0.5960426635742188	-2.597491455078125	0		-0.9895919799804688	0.3179521484375	0		-0.43482879638671873	-3.12950830078125	0		2.189526123046875	-0.24548880004882812	0		3.5463427734375	0.0747503433227539	0		4.945060546875	0.3193701171875	0		5.937779296875	0.48427667236328126	0		-0.31891107177734374	5.9117626953125	0		
-0.0047550048828125	-0.0056500577926635745	0		0.5446798706054687	-2.59191650390625	0		-0.9991396484375	0.31884991455078127	0		-0.33641790771484376	-3.1421572265625	0		2.19345166015625	-0.2136501007080078	0		3.507201171875	0.10327189636230469	0		4.92673193359375	0.3356461181640625	0		5.938099609375	0.48435516357421876	0		-0.18637371826171875	5.93362060546875	0		
0.002848737001419067	0.0010290640592575074	0		0.584187255859375	-2.5996767578125	0		-0.993593017578125	0.32251605224609375	0		-0.4506243286132813	-3.130722900390625	0		2.126376953125	-0.18479179382324218	0		3.516104736328125	0.131083740234375	0		4.92175732421875	0.37272048950195313	0		5.93845751953125	0.4844188232421875	0		-0.30329974365234375	5.9220927734375	0		
0.006446197032928467	0.003756916046142578	0		0.555114990234375	-2.581448486328125	0		-0.9930521850585937	0.32224551391601564	0		-0.323921875	-3.13079296875	0		2.16119580078125	-0.1674241180419922	0		3.496829345703125	0.143291748046875	0		4.90352978515625	0.3889729919433594	0		5.9489609375	0.504869384765625	0		-0.2898233642578125	5.933662109375	0		
0.004007875919342041	5.64171016216278E-4	0		0.605704833984375	-2.5903828125	0		-1.0024451293945313	0.3231123657226562	0		-0.42102011108398435	-3.118630615234375	0		2.13408447265625	-0.14817041015625	0		3.496731201171875	0.1642105255126953	0		4.88045263671875	0.4122808532714844	0		5.94939111328125	0.5048858337402343	0		-0.30361865234375	5.92261669921875	0		
0.004660591125488282	3.21494996547699E-4	0		0.6064578247070312	-2.59060205078125	0		-0.96580859375	0.32231298828125	0		-0.3224150390625	-3.131298095703125	0		2.1329013671875	-0.13730303955078124	0		3.4815517578125	0.17633189392089843	0		4.87152197265625	0.44236758422851563	0		5.94132861328125	0.5103563232421875	0		-0.31833734130859376	5.91257861328125	0		
0.002300628900527954	-0.003882455110549927	0		0.5812933959960938	-2.587455322265625	0		-1.0011193237304687	0.32254733276367187	0		-0.3185487976074219	-3.1276005859375	0		2.128704345703125	-0.13040327453613282	0		3.441505126953125	0.19479527282714842	0		4.8573193359375	0.45050872802734376	0		5.94894677734375	0.508321533203125	0		-0.31883734130859376	5.913333984375	0		
0.006094637870788574	-1.7641399800777434E-4	0		0.5851856689453125	-2.58273046875	0		-1.0003928833007814	0.32226412963867185	0		-0.3136390380859375	-3.12291943359375	0		2.097591796875	-0.12012772369384765	0		3.432308349609375	0.199799072265625	0		4.8433583984375	0.47262835693359373	0		5.9536591796875	0.4925089111328125	0		-0.2880093688964844	5.9326416015625	0		
